<svg id="Layer_1" enable-background="new 0 0 511.999 511.999" height="512" viewBox="0 0 511.999 511.999" width="512" xmlns="http://www.w3.org/2000/svg"><g><path d="m241.156 475.854v-87.747l-8.479-47.928c-.07 0-.142.008-.212.008-3.545 0-7.022-.583-10.309-1.677l4.176 15.308c1.443 5.29 1.772 10.824.966 16.248l-15.916 107.051v19.957c0 8.222 6.665 14.887 14.886 14.887s14.886-6.665 14.886-14.887v-4.887h25.405c-4.543-4.35-7.979-9.924-9.728-16.331h-15.675z"/><path d="m396.858 339.47c-.024.144-.039.287-.065.43l-9.76 55.175v80.779h-14.444c-1.749 6.407-5.186 11.981-9.729 16.331h24.173v4.887c0 8.222 6.665 14.887 14.886 14.887s14.886-6.665 14.886-14.887v-21.647-138.054c-6.107 2.701-12.94 3.579-19.947 2.099z"/><path d="m437.236 326.167c-5.262 0-9.527 4.265-9.527 9.527v133.237c0 5.262 4.265 9.527 9.527 9.527s9.527-4.265 9.527-9.527v-133.237c0-5.262-4.265-9.527-9.527-9.527z"/><path d="m307.71 433.27-18.294-103.415c-2.057-11.623-12.922-19.449-24.504-17.9-1.52 10.839-8.44 20.494-18.75 25.221.018.108.021.215.04.322l23.479 132.727c2.109 11.916 13.478 19.898 25.429 17.784 4.323-.765 8.113-2.758 11.104-5.543-3.351-6.646-4.662-14.393-3.266-22.287z"/><path d="m383.543 333.329c-6.187-4.79-10.441-11.645-12.026-19.228-1.873-.947-3.91-1.646-6.083-2.03-11.938-2.113-23.319 5.852-25.429 17.784l-23.479 132.727c-2.111 11.933 5.852 23.318 17.784 25.428 11.911 2.11 23.315-5.833 25.429-17.784 24.544-139.619 23.864-132.801 23.804-136.897z"/><path d="m276.369 102.755c-1.096 3.811-1.695 7.833-1.695 11.997 0 9.845 3.286 18.919 8.814 26.197l18.11-2.054c13.671-1.55 26.392 4.964 33.431 15.752 15.496-6.611 26.359-21.983 26.359-39.895 0-23.946-19.412-43.357-43.357-43.357-3.591 0-7.078.445-10.415 1.268-6.568 14.007-17.963 24.413-31.247 30.092z"/><path d="m440.835 242.698c-.084-16.833-16.486-42.801-21.511-50.358-24.426-36.74-39.984-36.74-45.097-36.74h-15.559c-5.252 5.225-11.503 9.445-18.437 12.349 3.385 20.031-10.752 38.574-30.707 40.836l-47.123 5.343v1.136 77.944l1.439 4.782c.018.06.032.121.05.181 18.569-2.071 35.803 10.62 39.103 29.281l4.513 25.51h14.412l4.513-25.51c3.698-20.902 24.779-34.134 45.396-28.008.351-1.393.435-1.535 1.764-5.995 0 0-.084-91.716-.105-101.069 3.629 3.104 10.162 10.197 17.849 22.209 8.21 12.832 12.274 22.574 13.511 26.867l-18.306 60.841c-2.833 9.414 2.503 19.342 11.917 22.174 9.358 2.817 19.327-2.449 22.175-11.917l19.449-64.639c.508-1.691.763-3.45.754-5.217z"/><path d="m212.594 357.565-28.035-102.772 15.658-37.045c-6.706-2.926-12.001-8.672-14.21-15.911l-16.932-55.336 29.11 48.363c4.209 6.994 12.164 11.047 20.493 10.103l89.266-10.122c11.601-1.315 19.938-11.785 18.623-23.386-1.316-11.601-11.771-19.945-23.387-18.623l-75.774 8.592-24.081-40.008 26.318 27.175c.194-1.972 10.096-24.453-5.375-47.918-8.603-4.491-15.816-10.873-21.257-18.468-.695-.33-1.396-.654-2.112-.956-17.236-7.285-36.732-7.043-53.782.668s-30.106 22.191-36.018 39.946l-35.134 107.183c-4.719 14.398-6.173 29.666-4.256 44.695l11.499 90.149-17.693 119.003c-2.06 13.858 7.504 26.762 21.361 28.822 13.835 2.061 26.759-7.486 28.822-21.361l18.196-122.387c.334-2.246.364-4.528.092-6.782l-9.49-78.326.386.047 15.267 1.854 22.1 81.014-17.413 117.119c-2.272 15.282 9.553 29.101 25.123 29.101 12.36 0 23.187-9.047 25.06-21.64l18.196-122.387c.514-3.474.303-7.018-.621-10.406z"/><ellipse cx="252.488" cy="46.669" rx="46.658" ry="46.658" transform="matrix(.773 -.635 .635 .773 27.726 170.807)"/><path d="m249.524 297.935-18.304-60.836c1.188-4.106 4.977-13.205 12.502-25.215l-30.474 3.456-14.372 33.1-.114-.057 12.875 47.198 3.795 12.612c2.319 7.704 9.388 12.677 17.039 12.677 1.699 0 3.426-.245 5.136-.76 9.414-2.832 14.749-12.761 11.917-22.175z"/></g></svg>